<mxfile host="app.diagrams.net" modified="2024-07-22T11:43:51.749Z" agent="Mozilla/5.0 (Windows NT 10.0; Win64; x64) AppleWebKit/537.36 (KHTML, like Gecko) Chrome/126.0.0.0 Safari/537.36" version="24.7.1" etag="qITo5A5oTOHQ5SCbh4Lo" type="github">
  <diagram name="第 1 页" id="G-k_U9OfXyxrMUG1Bhd7">
    <mxGraphModel>
      <root>
        <mxCell id="0" />
        <mxCell id="1" parent="0" />
      </root>
    </mxGraphModel>
  </diagram>
</mxfile>
